<svg xmlns="http://www.w3.org/2000/svg" viewBox="0 0 1200 720">
  <defs>
    <linearGradient id="bg" x1="0" x2="0" y1="0" y2="1">
      <stop offset="0%" stop-color="#eef5e8"/>
      <stop offset="100%" stop-color="#ffffff"/>
    </linearGradient>
  </defs>
  <rect width="1200" height="720" fill="url(#bg)"/>
  <circle cx="936" cy="150" r="74" fill="#dcc08d" fill-opacity="0.92"/>
  <path d="M0 452 C150 364 306 352 458 432 C624 520 778 520 938 432 C1038 378 1120 368 1200 394 L1200 720 L0 720 Z" fill="#8cb66f"/>
  <path d="M0 548 C180 468 336 478 478 544 C620 612 834 618 1200 514 L1200 720 L0 720 Z" fill="#406f4d"/>
  <rect x="70" y="74" rx="20" ry="20" width="250" height="42" fill="rgba(255,255,255,0.48)"/>
  <text x="96" y="102" font-size="24" font-family="Microsoft YaHei, Arial, sans-serif" fill="#24573a">和缘农业</text>
  <text x="76" y="570" font-size="52" font-family="Microsoft YaHei, Arial, sans-serif" fill="#ffffff">和缘农业茶园基地与农业环境</text>
  <text x="76" y="632" font-size="24" font-family="Microsoft YaHei, Arial, sans-serif" fill="rgba(255,255,255,0.92)">品牌视觉示意图</text>
</svg>
